# xmcd
#
# Track frame offsets:
#	150
#	10411
#	29449
#	45505
#	59083
#	79289
#	90841
#	100161
#	112984
#	123815
#	140051
#	157189
#	175980
#	194114
#	205036
#	216766
#
# Disc length: 3181 seconds
#
# Revision: 0
# Processed by: cddbd v1.5.2PL0 Copyright (c) Steve Scherf et al.
# Submitted via: EasyCDDAExtractor 11.5.3.1
#
DISCID=e20c6b10
DTITLE=Willie Nelson - Stardust (Legacy Edition) - Disc 2
DYEAR=2008
DGENRE=Country
TTITLE0=What A Wonderful World
TTITLE1=Basin Street Blues
TTITLE2=I'm confessin' (That I Love You)
TTITLE3=I'm Gonna Sit Right Down And Write Myself A Letter
TTITLE4=The Gypsy
TTITLE5=Mona Lisa
TTITLE6=Ac-Cent-Tchu-Ate The Positive
TTITLE7=Ole Buttermilk Sky
TTITLE8=That Lucky Old Sun
TTITLE9=Little Things Mean A Lot
TTITLE10=Cry
TTITLE11=You'll Never Know
TTITLE12=Tenderly
TTITLE13=Stormy Weather
TTITLE14=One For My Baby (And One More For The Road)
TTITLE15=Angel Eyes
EXTD=
EXTT0=
EXTT1=
EXTT2=
EXTT3=
EXTT4=
EXTT5=
EXTT6=
EXTT7=
EXTT8=
EXTT9=
EXTT10=
EXTT11=
EXTT12=
EXTT13=
EXTT14=
EXTT15=
PLAYORDER=
